<mxfile host="65bd71144e" scale="3" border="0">
    <diagram id="S9NNFIvEIgOqBYJrgnOU" name="第 1 页">
        <mxGraphModel dx="647" dy="519" grid="0" gridSize="10" guides="1" tooltips="1" connect="1" arrows="1" fold="1" page="1" pageScale="1" pageWidth="827" pageHeight="1169" math="0" shadow="0">
            <root>
                <mxCell id="0"/>
                <mxCell id="1" parent="0"/>
                <mxCell id="21" style="edgeStyle=none;html=1;exitX=0.5;exitY=1;exitDx=0;exitDy=0;entryX=0.5;entryY=0;entryDx=0;entryDy=0;fontColor=#8E9EA9;strokeColor=#8E9EA9;" parent="1" source="17" target="2" edge="1">
                    <mxGeometry relative="1" as="geometry"/>
                </mxCell>
                <mxCell id="2" value="A" style="ellipse;whiteSpace=wrap;html=1;aspect=fixed;fontColor=#ffffff;fillColor=#42b883;strokeColor=none;" parent="1" vertex="1">
                    <mxGeometry x="110" y="90" width="45" height="45" as="geometry"/>
                </mxCell>
                <mxCell id="3" value="B" style="ellipse;whiteSpace=wrap;html=1;aspect=fixed;fontColor=#FFFFFF;fillColor=#42B883;strokeColor=none;" parent="1" vertex="1">
                    <mxGeometry x="177" y="90" width="45" height="45" as="geometry"/>
                </mxCell>
                <mxCell id="4" value="C" style="ellipse;whiteSpace=wrap;html=1;aspect=fixed;fontColor=#FFFFFF;fillColor=#42B883;strokeColor=none;" parent="1" vertex="1">
                    <mxGeometry x="244" y="90" width="45" height="45" as="geometry"/>
                </mxCell>
                <mxCell id="22" style="edgeStyle=none;html=1;exitX=0.5;exitY=1;exitDx=0;exitDy=0;entryX=0.5;entryY=0;entryDx=0;entryDy=0;fontColor=#8E9EA9;strokeColor=#8E9EA9;" parent="1" source="19" target="5" edge="1">
                    <mxGeometry relative="1" as="geometry"/>
                </mxCell>
                <mxCell id="5" value="D" style="ellipse;whiteSpace=wrap;html=1;aspect=fixed;fontColor=#FFFFFF;fillColor=#42B883;strokeColor=none;" parent="1" vertex="1">
                    <mxGeometry x="311" y="90" width="45" height="45" as="geometry"/>
                </mxCell>
                <mxCell id="20" style="edgeStyle=none;html=1;exitX=0.5;exitY=0;exitDx=0;exitDy=0;entryX=0.5;entryY=1;entryDx=0;entryDy=0;fontColor=#8E9EA9;strokeColor=#8E9EA9;" parent="1" source="16" target="7" edge="1">
                    <mxGeometry relative="1" as="geometry"/>
                </mxCell>
                <mxCell id="7" value="D" style="ellipse;whiteSpace=wrap;html=1;aspect=fixed;fontColor=#ffffff;fillColor=#42B883;strokeColor=none;" parent="1" vertex="1">
                    <mxGeometry x="110" y="181" width="45" height="45" as="geometry"/>
                </mxCell>
                <mxCell id="8" value="A" style="ellipse;whiteSpace=wrap;html=1;aspect=fixed;fontColor=#FFFFFF;fillColor=#42B883;strokeColor=none;" parent="1" vertex="1">
                    <mxGeometry x="177" y="181" width="45" height="45" as="geometry"/>
                </mxCell>
                <mxCell id="9" value="B" style="ellipse;whiteSpace=wrap;html=1;aspect=fixed;fontColor=#FFFFFF;fillColor=#42B883;strokeColor=none;" parent="1" vertex="1">
                    <mxGeometry x="244" y="181" width="45" height="45" as="geometry"/>
                </mxCell>
                <mxCell id="23" style="edgeStyle=none;html=1;exitX=0.5;exitY=0;exitDx=0;exitDy=0;entryX=0.5;entryY=1;entryDx=0;entryDy=0;fontColor=#8E9EA9;strokeColor=#8E9EA9;" parent="1" source="18" target="10" edge="1">
                    <mxGeometry relative="1" as="geometry"/>
                </mxCell>
                <mxCell id="10" value="C" style="ellipse;whiteSpace=wrap;html=1;aspect=fixed;fontColor=#FFFFFF;fillColor=#42B883;strokeColor=none;" parent="1" vertex="1">
                    <mxGeometry x="311" y="181" width="45" height="45" as="geometry"/>
                </mxCell>
                <mxCell id="12" value="old" style="text;strokeColor=none;align=center;fillColor=none;html=1;verticalAlign=middle;whiteSpace=wrap;rounded=0;fontColor=#8E9EA9;" parent="1" vertex="1">
                    <mxGeometry x="28" y="97.5" width="60" height="30" as="geometry"/>
                </mxCell>
                <mxCell id="13" value="new" style="text;strokeColor=none;align=center;fillColor=none;html=1;verticalAlign=middle;whiteSpace=wrap;rounded=0;fontColor=#8E9EA9;" parent="1" vertex="1">
                    <mxGeometry x="28" y="188.5" width="60" height="30" as="geometry"/>
                </mxCell>
                <mxCell id="16" value="startIndex" style="text;strokeColor=none;align=center;fillColor=none;html=1;verticalAlign=middle;whiteSpace=wrap;rounded=0;fontColor=#8E9EA9;" parent="1" vertex="1">
                    <mxGeometry x="102.5" y="264" width="60" height="23" as="geometry"/>
                </mxCell>
                <mxCell id="17" value="startIndex" style="text;strokeColor=none;align=center;fillColor=none;html=1;verticalAlign=middle;whiteSpace=wrap;rounded=0;fontColor=#8E9EA9;" parent="1" vertex="1">
                    <mxGeometry x="102.5" y="34" width="60" height="23" as="geometry"/>
                </mxCell>
                <mxCell id="18" value="endIndex" style="text;strokeColor=none;align=center;fillColor=none;html=1;verticalAlign=middle;whiteSpace=wrap;rounded=0;fontColor=#8E9EA9;" parent="1" vertex="1">
                    <mxGeometry x="303.5" y="264" width="60" height="23" as="geometry"/>
                </mxCell>
                <mxCell id="19" value="endIndex" style="text;strokeColor=none;align=center;fillColor=none;html=1;verticalAlign=middle;whiteSpace=wrap;rounded=0;fontColor=#8E9EA9;" parent="1" vertex="1">
                    <mxGeometry x="303.5" y="34" width="60" height="23" as="geometry"/>
                </mxCell>
            </root>
        </mxGraphModel>
    </diagram>
</mxfile>